<?plantuml 1.2026.2?><svg xmlns="http://www.w3.org/2000/svg" xmlns:xlink="http://www.w3.org/1999/xlink" contentStyleType="text/css" data-diagram-type="DESCRIPTION" height="626px" preserveAspectRatio="none" style="width:759px;height:626px;background:#FFFFFF;" version="1.1" viewBox="0 0 759 626" width="759px" zoomAndPan="magnify"><defs/><g><!--cluster Sistema King and Peasant--><g class="cluster" data-qualified-name="Sistema King and Peasant" data-source-line="7" id="ent0004"><rect fill="none" height="613" rx="2.5" ry="2.5" style="stroke:#181818;stroke-width:1;" width="535.19" x="218.68" y="7"/><text fill="#000000" font-family="sans-serif" font-size="14" font-weight="bold" lengthAdjust="spacing" textLength="206.7734" x="382.8883" y="21.9951">Sistema King and Peasant</text></g><!--entity UC_Reg--><g class="entity" data-qualified-name="Sistema King and Peasant.UC_Reg" data-source-line="8" id="ent0005"><ellipse cx="353.8167" cy="57.0036" fill="#F1F1F1" rx="59.4967" ry="14.5236" style="stroke:#181818;stroke-width:0.5;"/><text fill="#000000" font-family="sans-serif" font-size="14" lengthAdjust="spacing" textLength="79.8984" x="313.8675" y="61.6521">Registrarse</text></g><!--entity UC_Log--><g class="entity" data-qualified-name="Sistema King and Peasant.UC_Log" data-source-line="9" id="ent0006"><ellipse cx="353.8189" cy="122.0038" fill="#F1F1F1" rx="64.9689" ry="15.3938" style="stroke:#181818;stroke-width:0.5;"/><text fill="#000000" font-family="sans-serif" font-size="14" lengthAdjust="spacing" textLength="93.3857" x="307.1261" y="126.6522">Iniciar Sesi&#243;n</text></g><!--entity UC_Perfil--><g class="entity" data-qualified-name="Sistema King and Peasant.UC_Perfil" data-source-line="11" id="ent0007"><ellipse cx="353.8169" cy="188.9994" fill="#F1F1F1" rx="70.5969" ry="16.5194" style="stroke:#181818;stroke-width:0.5;"/><text fill="#000000" font-family="sans-serif" font-size="14" lengthAdjust="spacing" textLength="107.8779" x="299.8779" y="193.6478">Gestionar Perfil</text></g><!--entity UC_Amigos--><g class="entity" data-qualified-name="Sistema King and Peasant.UC_Amigos" data-source-line="12" id="ent0008"><ellipse cx="353.82" cy="266.998" fill="#F1F1F1" rx="119.14" ry="26.228" style="stroke:#181818;stroke-width:0.5;"/><text fill="#000000" font-family="sans-serif" font-size="14" lengthAdjust="spacing" textLength="124.209" x="291.7155" y="260.1668">Gestionar Amigos</text><text fill="#000000" font-family="sans-serif" font-size="14" lengthAdjust="spacing" textLength="192.7256" x="257.4572" y="276.4637">(Enviar, Aceptar, Rechazar)</text></g><!--entity UC_Historial--><g class="entity" data-qualified-name="Sistema King and Peasant.UC_Historial" data-source-line="13" id="ent0009"><ellipse cx="353.8163" cy="349.9953" fill="#F1F1F1" rx="97.0763" ry="21.8153" style="stroke:#181818;stroke-width:0.5;"/><text fill="#000000" font-family="sans-serif" font-size="14" lengthAdjust="spacing" textLength="169.5928" x="269.0199" y="354.6437">Ver Historial de Partidas</text></g><!--entity UC_Lobby--><g class="entity" data-qualified-name="Sistema King and Peasant.UC_Lobby" data-source-line="15" id="ent0010"><ellipse cx="353.8178" cy="431.0046" fill="#F1F1F1" rx="91.2678" ry="24.4846" style="stroke:#181818;stroke-width:0.5;"/><text fill="#000000" font-family="sans-serif" font-size="14" lengthAdjust="spacing" textLength="133.9092" x="286.8632" y="429.8015">Gesti&#243;n de Lobbies</text><text fill="#000000" font-family="sans-serif" font-size="14" lengthAdjust="spacing" textLength="88.4434" x="309.5961" y="446.0984">(Ver, Unirse)</text></g><!--entity UC_CrearLobby--><g class="entity" data-qualified-name="Sistema King and Peasant.UC_CrearLobby" data-source-line="16" id="ent0011"><ellipse cx="353.8212" cy="515.0022" fill="#F1F1F1" rx="108.9612" ry="24.1922" style="stroke:#181818;stroke-width:0.5;"/><text fill="#000000" font-family="sans-serif" font-size="14" lengthAdjust="spacing" textLength="195.6309" x="256.0058" y="519.6507">Crear Sala (P&#250;blica/Privada)</text></g><!--entity UC_Jugar--><g class="entity" data-qualified-name="Sistema King and Peasant.UC_Jugar" data-source-line="18" id="ent0012"><ellipse cx="353.8233" cy="589.0027" fill="#F1F1F1" rx="63.8133" ry="15.1627" style="stroke:#181818;stroke-width:0.5;"/><text fill="#000000" font-family="sans-serif" font-size="14" lengthAdjust="spacing" textLength="90.2959" x="308.6754" y="593.6511">Jugar Partida</text></g><!--entity UC_Carta--><g class="entity" data-qualified-name="Sistema King and Peasant.UC_Carta" data-source-line="19" id="ent0013"><ellipse cx="667.9072" cy="576.0036" fill="#F1F1F1" rx="58.7572" ry="14.5236" style="stroke:#181818;stroke-width:0.5;"/><text fill="#000000" font-family="sans-serif" font-size="14" lengthAdjust="spacing" textLength="78.8525" x="628.4809" y="580.6521">Jugar Carta</text></g><!--entity UC_Chat--><g class="entity" data-qualified-name="Sistema King and Peasant.UC_Chat" data-source-line="20" id="ent0014"><ellipse cx="667.9111" cy="512.0036" fill="#F1F1F1" rx="42.3611" ry="14.5236" style="stroke:#181818;stroke-width:0.5;"/><text fill="#000000" font-family="sans-serif" font-size="14" lengthAdjust="spacing" textLength="55.665" x="640.0786" y="516.6521">Chatear</text></g><!--entity UC_Salir--><g class="entity" data-qualified-name="Sistema King and Peasant.UC_Salir" data-source-line="21" id="ent0015"><ellipse cx="667.9077" cy="446.0015" fill="#F1F1F1" rx="69.9577" ry="16.3915" style="stroke:#181818;stroke-width:0.5;"/><text fill="#000000" font-family="sans-serif" font-size="14" lengthAdjust="spacing" textLength="106.2715" x="614.772" y="450.65">Rendirse / Salir</text></g><!--entity Invitado--><g class="entity" data-qualified-name="Invitado" data-source-line="4" id="ent0002"><ellipse cx="88.8379" cy="60.35" fill="#F1F1F1" rx="8" ry="8" style="stroke:#181818;stroke-width:0.5;"/><path d="M88.8379,68.35 L88.8379,95.35 M75.8379,76.35 L101.8379,76.35 M88.8379,95.35 L75.8379,110.35 M88.8379,95.35 L101.8379,110.35" fill="none" style="stroke:#181818;stroke-width:0.5;"/><text fill="#000000" font-family="sans-serif" font-size="14" lengthAdjust="spacing" textLength="165.6758" x="6" y="124.8451">Usuario No Autenticado</text></g><!--entity Jugador--><g class="entity" data-qualified-name="Jugador" data-source-line="5" id="ent0003"><ellipse cx="88.8379" cy="380.35" fill="#F1F1F1" rx="8" ry="8" style="stroke:#181818;stroke-width:0.5;"/><path d="M88.8379,388.35 L88.8379,415.35 M75.8379,396.35 L101.8379,396.35 M88.8379,415.35 L75.8379,430.35 M88.8379,415.35 L101.8379,430.35" fill="none" style="stroke:#181818;stroke-width:0.5;"/><text fill="#000000" font-family="sans-serif" font-size="14" lengthAdjust="spacing" textLength="53.6758" x="62" y="444.8451">Jugador</text></g><!--link Invitado to UC_Reg--><g class="link" data-entity-1="ent0002" data-entity-2="ent0005" data-link-type="dependency" data-source-line="24" id="lnk16"><path d="M171.96,79.69 C213.86,74.44 257.6268,68.948 294.3168,64.338" fill="none" id="Invitado-to-UC_Reg" style="stroke:#181818;stroke-width:1;"/><polygon fill="#181818" points="300.27,63.59,290.8415,60.7432,295.309,64.2133,291.8389,68.6808,300.27,63.59" style="stroke:#181818;stroke-width:1;"/></g><!--link Invitado to UC_Log--><g class="link" data-entity-1="ent0002" data-entity-2="ent0006" data-link-type="dependency" data-source-line="25" id="lnk17"><path d="M171.96,99.99 C212.05,104.87 253.344,109.8951 289.494,114.2951" fill="none" id="Invitado-to-UC_Log" style="stroke:#181818;stroke-width:1;"/><polygon fill="#181818" points="295.45,115.02,286.9992,109.9619,290.4866,114.4159,286.0326,117.9033,295.45,115.02" style="stroke:#181818;stroke-width:1;"/></g><!--link Jugador to UC_Perfil--><g class="link" data-entity-1="ent0003" data-entity-2="ent0007" data-link-type="dependency" data-source-line="27" id="lnk18"><path d="M104.39,371.43 C122.62,328.51 157.99,260.29 210.68,223 C232.73,207.39 255.1355,199.9462 280.6655,195.3362" fill="none" id="Jugador-to-UC_Perfil" style="stroke:#181818;stroke-width:1;"/><polygon fill="#181818" points="286.57,194.27,277.0024,191.9329,281.6496,195.1585,278.424,199.8056,286.57,194.27" style="stroke:#181818;stroke-width:1;"/></g><!--link Jugador to UC_Amigos--><g class="link" data-entity-1="ent0003" data-entity-2="ent0008" data-link-type="dependency" data-source-line="28" id="lnk19"><path d="M115.94,383.48 C139.05,361.35 174.61,330.39 210.68,311 C229.45,300.91 245.156,294.5487 265.586,288.1287" fill="none" id="Jugador-to-UC_Amigos" style="stroke:#181818;stroke-width:1;"/><polygon fill="#181818" points="271.31,286.33,261.5248,285.2121,266.54,287.829,263.9231,292.8441,271.31,286.33" style="stroke:#181818;stroke-width:1;"/></g><!--link Jugador to UC_Historial--><g class="link" data-entity-1="ent0003" data-entity-2="ent0009" data-link-type="dependency" data-source-line="29" id="lnk20"><path d="M116.01,404.03 C154.92,395.15 223.4902,379.5042 278.5602,366.9442" fill="none" id="Jugador-to-UC_Historial" style="stroke:#181818;stroke-width:1;"/><polygon fill="#181818" points="284.41,365.61,274.7459,363.7114,279.5352,366.7218,276.5248,371.5111,284.41,365.61" style="stroke:#181818;stroke-width:1;"/></g><!--link Jugador to UC_Lobby--><g class="link" data-entity-1="ent0003" data-entity-2="ent0010" data-link-type="dependency" data-source-line="30" id="lnk21"><path d="M116.01,412.09 C150.7,414.86 207.6291,419.4016 259.8891,423.5816" fill="none" id="Jugador-to-UC_Lobby" style="stroke:#181818;stroke-width:1;"/><polygon fill="#181818" points="265.87,424.06,257.2176,419.3552,260.8859,423.6613,256.5797,427.3297,265.87,424.06" style="stroke:#181818;stroke-width:1;"/></g><!--link Jugador to UC_CrearLobby--><g class="link" data-entity-1="ent0003" data-entity-2="ent0011" data-link-type="dependency" data-source-line="31" id="lnk22"><path d="M116.01,425.53 C140.03,439.33 176.89,459.35 210.68,473 C233.1,482.06 252.4549,488.4677 275.2749,495.0477" fill="none" id="Jugador-to-UC_CrearLobby" style="stroke:#181818;stroke-width:1;"/><polygon fill="#181818" points="281.04,496.71,273.5005,490.3731,276.2357,495.3247,271.2841,498.0599,281.04,496.71" style="stroke:#181818;stroke-width:1;"/></g><!--link Jugador to UC_Jugar--><g class="link" data-entity-1="ent0003" data-entity-2="ent0012" data-link-type="dependency" data-source-line="32" id="lnk23"><path d="M111.27,448.38 C132.2,482.23 167.22,530.23 210.68,557 C235.23,572.12 260.174,579.1808 286.864,583.4108" fill="none" id="Jugador-to-UC_Jugar" style="stroke:#181818;stroke-width:1;"/><polygon fill="#181818" points="292.79,584.35,284.5271,578.9905,287.8516,583.5673,283.2748,586.8919,292.79,584.35" style="stroke:#181818;stroke-width:1;"/></g><!--link UC_Jugar to UC_Carta--><g class="link" data-entity-1="ent0012" data-entity-2="ent0013" data-link-type="dependency" data-source-line="35" id="lnk24"><path d="M417.22,586.4 C473.35,584.06 549.1152,580.9097 603.6152,578.6397" fill="none" id="UC_Jugar-to-UC_Carta" style="stroke:#181818;stroke-width:1;stroke-dasharray:7,7;"/><polygon fill="#181818" points="609.61,578.39,600.4513,574.768,604.6143,578.5981,600.7843,582.7611,609.61,578.39" style="stroke:#181818;stroke-width:1;"/><text fill="#000000" font-family="sans-serif" font-size="13" lengthAdjust="spacing" textLength="63.0068" x="503.96" y="576.2669">&#171;include&#187;</text></g><!--reverse link UC_Jugar to UC_Chat--><g class="link" data-entity-1="ent0012" data-entity-2="ent0014" data-link-type="dependency" data-source-line="36" id="lnk25"><path d="M405.0253,576.6127 C467.9653,561.0827 575.98,534.44 632.77,520.42" fill="none" id="UC_Jugar-backto-UC_Chat" style="stroke:#181818;stroke-width:1;stroke-dasharray:7,7;"/><polygon fill="#181818" points="399.2,578.05,408.8962,579.7775,404.0544,576.8522,406.9797,572.0104,399.2,578.05" style="stroke:#181818;stroke-width:1;"/><text fill="#000000" font-family="sans-serif" font-size="13" lengthAdjust="spacing" textLength="61.1851" x="504.96" y="532.9769">&#171;extend&#187;</text></g><!--reverse link UC_Jugar to UC_Salir--><g class="link" data-entity-1="ent0012" data-entity-2="ent0015" data-link-type="dependency" data-source-line="37" id="lnk26"><path d="M417.1894,580.9088 C438.0194,576.3188 455.02,569.91 472.96,557 C492.47,542.96 484.31,527.17 502.96,512 C536.4,484.8 582.52,467.58 617.33,457.57" fill="none" id="UC_Jugar-backto-UC_Salir" style="stroke:#181818;stroke-width:1;stroke-dasharray:7,7;"/><polygon fill="#181818" points="411.33,582.2,420.9799,584.1696,416.2129,581.124,419.2584,576.357,411.33,582.2" style="stroke:#181818;stroke-width:1;"/><text fill="#000000" font-family="sans-serif" font-size="13" lengthAdjust="spacing" textLength="61.1851" x="504.96" y="471.9569">&#171;extend&#187;</text></g><?plantuml-src RPF1Rjim38RlUWeYbxL0azw7840G55ktOZ0QfAS10osp3b572YIvM3RigNRRjIzMIeuSnyjD93_Iv4-weUS0mOBZUXkWOaSwi3NAlx3PeyCTx56_O4thS6W8OXXDtP1Ig8DrCDdu5XrR-6PXsGOoWJLMTWBeuTwySX0Zer_QMYoNOiUtKdr5cApP1zeXV6LJ0veA2aAF9apWjm9eFMdqWZrIBQ13vocLsgn-Y6j8t1lMZ0xMvFdjhydKWutK4Fn4FauhQ47kcPjCTjPbShdZslhlvkfEnaDt0qjD-n0VZwIt-0lTTIxJeSCoJ-JWitHl7MC35K61Bd25FgVqmKkToYmnvy6M9LDiGShTmCQmI75zch8i3yFKbQEe1JO8LyNRlxAH3TqMZb-nmZuhGJbrc1qNvNARcKxE_wcLK3sJZBC-jXZa8trSpFErcYeE0hUnL-wvPAW_IkLpWkbqaPS-ziKLg-DjPTzncIFlSJSZxqd-KQ2JPkGSY3QAT0Af3t8J3Mev7F9nSsnqqwQRX0FGJ_bTEeCCo7RsdSWgvyDijkYLX8ymdwVyYXQB4pEVpRAQ2KbLgmj4ql4SUGS0?></g></svg>