<?plantuml 1.2026.2?><svg xmlns="http://www.w3.org/2000/svg" xmlns:xlink="http://www.w3.org/1999/xlink" contentStyleType="text/css" data-diagram-type="SEQUENCE" height="1011px" preserveAspectRatio="none" style="width:954px;height:1011px;background:#FFFFFF;" version="1.1" viewBox="0 0 954 1011" width="954px" zoomAndPan="magnify"><defs/><g><g class="participant-lifeline" data-entity-uid="part1" data-qualified-name="Jugador" id="part1-lifeline"><g><title>Jugador</title><rect fill="#000000" fill-opacity="0.00000" height="833.4531" width="8" x="30.8379" y="83.5938"/><line style="stroke:#181818;stroke-width:0.5;stroke-dasharray:5,5;" x1="34" x2="34" y1="83.5938" y2="917.0469"/></g></g><g class="participant-lifeline" data-entity-uid="part2" data-qualified-name="UI" id="part2-lifeline"><g><title>Frontend</title><rect fill="#000000" fill-opacity="0.00000" height="833.4531" width="8" x="334.9282" y="83.5938"/><line style="stroke:#181818;stroke-width:0.5;stroke-dasharray:5,5;" x1="338.27" x2="338.27" y1="83.5938" y2="917.0469"/></g></g><g class="participant-lifeline" data-entity-uid="part3" data-qualified-name="API" id="part3-lifeline"><g><title>Backend</title><rect fill="#000000" fill-opacity="0.00000" height="833.4531" width="8" x="614.5293" y="83.5938"/><line style="stroke:#181818;stroke-width:0.5;stroke-dasharray:5,5;" x1="617.895" x2="617.895" y1="83.5938" y2="917.0469"/></g></g><g class="participant-lifeline" data-entity-uid="part4" data-qualified-name="DB" id="part4-lifeline"><g><title>Bases de Datos</title><rect fill="#000000" fill-opacity="0.00000" height="833.4531" width="8" x="878.7056" y="83.5938"/><line style="stroke:#181818;stroke-width:0.5;stroke-dasharray:5,5;" x1="882.0459" x2="882.0459" y1="83.5938" y2="917.0469"/></g></g><g class="participant participant-head" data-entity-uid="part1" data-qualified-name="Jugador" id="part1-head"><text fill="#000000" font-family="sans-serif" font-size="14" lengthAdjust="spacing" textLength="53.6758" x="5" y="80.292">Jugador</text><ellipse cx="34.8379" cy="15.7969" fill="#E2E2F0" rx="8" ry="8" style="stroke:#181818;stroke-width:0.5;"/><path d="M34.8379,23.7969 L34.8379,50.7969 M21.8379,31.7969 L47.8379,31.7969 M34.8379,50.7969 L21.8379,65.7969 M34.8379,50.7969 L47.8379,65.7969" fill="none" style="stroke:#181818;stroke-width:0.5;"/></g><g class="participant participant-tail" data-entity-uid="part1" data-qualified-name="Jugador" id="part1-tail"><text fill="#000000" font-family="sans-serif" font-size="14" lengthAdjust="spacing" textLength="53.6758" x="5" y="929.042">Jugador</text><ellipse cx="34.8379" cy="940.8438" fill="#E2E2F0" rx="8" ry="8" style="stroke:#181818;stroke-width:0.5;"/><path d="M34.8379,948.8438 L34.8379,975.8438 M21.8379,956.8438 L47.8379,956.8438 M34.8379,975.8438 L21.8379,990.8438 M34.8379,975.8438 L47.8379,990.8438" fill="none" style="stroke:#181818;stroke-width:0.5;"/></g><g class="participant participant-head" data-entity-uid="part2" data-qualified-name="UI" id="part2-head"><rect fill="#E2E2F0" height="46.5938" rx="2.5" ry="2.5" style="stroke:#181818;stroke-width:0.5;" width="97.3164" x="290.27" y="36"/><text fill="#000000" font-family="sans-serif" font-size="14" lengthAdjust="spacing" textLength="63.1094" x="307.3735" y="55.9951">Frontend</text><text fill="#000000" font-family="sans-serif" font-size="14" lengthAdjust="spacing" textLength="83.3164" x="297.27" y="72.292">(React/Vite)</text></g><g class="participant participant-tail" data-entity-uid="part2" data-qualified-name="UI" id="part2-tail"><rect fill="#E2E2F0" height="46.5938" rx="2.5" ry="2.5" style="stroke:#181818;stroke-width:0.5;" width="97.3164" x="290.27" y="916.0469"/><text fill="#000000" font-family="sans-serif" font-size="14" lengthAdjust="spacing" textLength="63.1094" x="307.3735" y="936.042">Frontend</text><text fill="#000000" font-family="sans-serif" font-size="14" lengthAdjust="spacing" textLength="83.3164" x="297.27" y="952.3389">(React/Vite)</text></g><g class="participant participant-head" data-entity-uid="part3" data-qualified-name="API" id="part3-head"><rect fill="#E2E2F0" height="46.5938" rx="2.5" ry="2.5" style="stroke:#181818;stroke-width:0.5;" width="139.2686" x="548.895" y="36"/><text fill="#000000" font-family="sans-serif" font-size="14" lengthAdjust="spacing" textLength="60.3613" x="588.3486" y="55.9951">Backend</text><text fill="#000000" font-family="sans-serif" font-size="14" lengthAdjust="spacing" textLength="125.2686" x="555.895" y="72.292">(Express/Sockets)</text></g><g class="participant participant-tail" data-entity-uid="part3" data-qualified-name="API" id="part3-tail"><rect fill="#E2E2F0" height="46.5938" rx="2.5" ry="2.5" style="stroke:#181818;stroke-width:0.5;" width="139.2686" x="548.895" y="916.0469"/><text fill="#000000" font-family="sans-serif" font-size="14" lengthAdjust="spacing" textLength="60.3613" x="588.3486" y="936.042">Backend</text><text fill="#000000" font-family="sans-serif" font-size="14" lengthAdjust="spacing" textLength="125.2686" x="555.895" y="952.3389">(Express/Sockets)</text></g><g class="participant participant-head" data-entity-uid="part4" data-qualified-name="DB" id="part4-head"><text fill="#000000" font-family="sans-serif" font-size="14" lengthAdjust="spacing" textLength="108.4932" x="825.459" y="63.9951">Bases de Datos</text><text fill="#000000" font-family="sans-serif" font-size="14" lengthAdjust="spacing" textLength="113.3193" x="823.0459" y="80.292">(MariaDB/Redis)</text><path d="M864.7056,15 C864.7056,5 882.7056,5 882.7056,5 C882.7056,5 900.7056,5 900.7056,15 L900.7056,41 C900.7056,51 882.7056,51 882.7056,51 C882.7056,51 864.7056,51 864.7056,41 L864.7056,15" fill="#E2E2F0" style="stroke:#181818;stroke-width:0.5;"/><path d="M864.7056,15 C864.7056,25 882.7056,25 882.7056,25 C882.7056,25 900.7056,25 900.7056,15" fill="none" style="stroke:#181818;stroke-width:0.5;"/></g><g class="participant participant-tail" data-entity-uid="part4" data-qualified-name="DB" id="part4-tail"><text fill="#000000" font-family="sans-serif" font-size="14" lengthAdjust="spacing" textLength="108.4932" x="825.459" y="929.042">Bases de Datos</text><text fill="#000000" font-family="sans-serif" font-size="14" lengthAdjust="spacing" textLength="113.3193" x="823.0459" y="945.3389">(MariaDB/Redis)</text><path d="M864.7056,958.6406 C864.7056,948.6406 882.7056,948.6406 882.7056,948.6406 C882.7056,948.6406 900.7056,948.6406 900.7056,958.6406 L900.7056,984.6406 C900.7056,994.6406 882.7056,994.6406 882.7056,994.6406 C882.7056,994.6406 864.7056,994.6406 864.7056,984.6406 L864.7056,958.6406" fill="#E2E2F0" style="stroke:#181818;stroke-width:0.5;"/><path d="M864.7056,958.6406 C864.7056,968.6406 882.7056,968.6406 882.7056,968.6406 C882.7056,968.6406 900.7056,968.6406 900.7056,958.6406" fill="none" style="stroke:#181818;stroke-width:0.5;"/></g><rect fill="#EEEEEE" height="3" style="stroke:#EEEEEE;stroke-width:1;" width="947.3652" x="0" y="114.1602"/><line style="stroke:#000000;stroke-width:1;" x1="0" x2="947.3652" y1="114.1602" y2="114.1602"/><line style="stroke:#000000;stroke-width:1;" x1="0" x2="947.3652" y1="117.1602" y2="117.1602"/><rect fill="#EEEEEE" height="23.1328" style="stroke:#000000;stroke-width:2;" width="98.9189" x="424.2231" y="103.5938"/><text fill="#000000" font-family="sans-serif" font-size="13" font-weight="bold" lengthAdjust="spacing" textLength="80.3931" x="430.2231" y="119.6606">1. Registro</text><g class="message" data-entity-1="part1" data-entity-2="part2" id="msg1"><polygon fill="#181818" points="326.9282,153.8594,336.9282,157.8594,326.9282,161.8594,330.9282,157.8594" style="stroke:#181818;stroke-width:1;"/><line style="stroke:#181818;stroke-width:1;" x1="34.8379" x2="332.9282" y1="157.8594" y2="157.8594"/><text fill="#000000" font-family="sans-serif" font-size="13" lengthAdjust="spacing" textLength="280.0903" x="41.8379" y="152.7935">Introduce datos (Usuario, Email, Password)</text></g><g class="message" data-entity-1="part2" data-entity-2="part3" id="msg2"><polygon fill="#181818" points="606.5293,182.9922,616.5293,186.9922,606.5293,190.9922,610.5293,186.9922" style="stroke:#181818;stroke-width:1;"/><line style="stroke:#181818;stroke-width:1;" x1="338.9282" x2="612.5293" y1="186.9922" y2="186.9922"/><text fill="#000000" font-family="sans-serif" font-size="13" lengthAdjust="spacing" textLength="156.9141" x="345.9282" y="181.9263">POST /api/users/register</text></g><g class="message" data-entity-1="part3" data-entity-2="part4" id="msg3"><polygon fill="#181818" points="870.7056,212.125,880.7056,216.125,870.7056,220.125,874.7056,216.125" style="stroke:#181818;stroke-width:1;"/><line style="stroke:#181818;stroke-width:1;" x1="618.5293" x2="876.7056" y1="216.125" y2="216.125"/><text fill="#000000" font-family="sans-serif" font-size="13" lengthAdjust="spacing" textLength="144.3584" x="625.5293" y="211.0591">Guarda nuevo usuario</text></g><g class="message" data-entity-1="part3" data-entity-2="part2" id="msg4"><polygon fill="#181818" points="349.9282,241.2578,339.9282,245.2578,349.9282,249.2578,345.9282,245.2578" style="stroke:#181818;stroke-width:1;"/><line style="stroke:#181818;stroke-width:1;stroke-dasharray:2,2;" x1="343.9282" x2="617.5293" y1="245.2578" y2="245.2578"/><text fill="#000000" font-family="sans-serif" font-size="13" lengthAdjust="spacing" textLength="143.9395" x="355.9282" y="240.1919">Devuelve Token (JWT)</text></g><g class="message" data-entity-1="part2" data-entity-2="part1" id="msg5"><polygon fill="#181818" points="45.8379,270.3906,35.8379,274.3906,45.8379,278.3906,41.8379,274.3906" style="stroke:#181818;stroke-width:1;"/><line style="stroke:#181818;stroke-width:1;stroke-dasharray:2,2;" x1="39.8379" x2="337.9282" y1="274.3906" y2="274.3906"/><text fill="#000000" font-family="sans-serif" font-size="13" lengthAdjust="spacing" textLength="204.458" x="51.8379" y="269.3247">Redirige al Dashboard Principal</text></g><rect fill="#EEEEEE" height="3" style="stroke:#EEEEEE;stroke-width:1;" width="947.3652" x="0" y="302.957"/><line style="stroke:#000000;stroke-width:1;" x1="0" x2="947.3652" y1="302.957" y2="302.957"/><line style="stroke:#000000;stroke-width:1;" x1="0" x2="947.3652" y1="305.957" y2="305.957"/><rect fill="#EEEEEE" height="23.1328" style="stroke:#000000;stroke-width:2;" width="112.8774" x="417.2439" y="292.3906"/><text fill="#000000" font-family="sans-serif" font-size="13" font-weight="bold" lengthAdjust="spacing" textLength="94.3516" x="423.2439" y="308.4575">2. Crear Sala</text><g class="message" data-entity-1="part1" data-entity-2="part2" id="msg6"><polygon fill="#181818" points="326.9282,342.6563,336.9282,346.6563,326.9282,350.6563,330.9282,346.6563" style="stroke:#181818;stroke-width:1;"/><line style="stroke:#181818;stroke-width:1;" x1="34.8379" x2="332.9282" y1="346.6563" y2="346.6563"/><text fill="#000000" font-family="sans-serif" font-size="13" lengthAdjust="spacing" textLength="153.6768" x="41.8379" y="341.5903">Selecciona "Crear Sala"</text></g><g class="message" data-entity-1="part2" data-entity-2="part3" id="msg7"><polygon fill="#181818" points="606.5293,371.7891,616.5293,375.7891,606.5293,379.7891,610.5293,375.7891" style="stroke:#181818;stroke-width:1;"/><line style="stroke:#181818;stroke-width:1;" x1="338.9282" x2="612.5293" y1="375.7891" y2="375.7891"/><text fill="#000000" font-family="sans-serif" font-size="13" lengthAdjust="spacing" textLength="255.6011" x="345.9282" y="370.7231">POST /api/lobbies (Nombre, Privacidad)</text></g><g class="message" data-entity-1="part3" data-entity-2="part4" id="msg8"><polygon fill="#181818" points="870.7056,400.9219,880.7056,404.9219,870.7056,408.9219,874.7056,404.9219" style="stroke:#181818;stroke-width:1;"/><line style="stroke:#181818;stroke-width:1;" x1="618.5293" x2="876.7056" y1="404.9219" y2="404.9219"/><text fill="#000000" font-family="sans-serif" font-size="13" lengthAdjust="spacing" textLength="234.9014" x="625.5293" y="399.856">Persiste el Lobby (Estado: WAITING)</text></g><g class="message" data-entity-1="part3" data-entity-2="part2" id="msg9"><polygon fill="#181818" points="349.9282,430.0547,339.9282,434.0547,349.9282,438.0547,345.9282,434.0547" style="stroke:#181818;stroke-width:1;"/><line style="stroke:#181818;stroke-width:1;stroke-dasharray:2,2;" x1="343.9282" x2="617.5293" y1="434.0547" y2="434.0547"/><text fill="#000000" font-family="sans-serif" font-size="13" lengthAdjust="spacing" textLength="118.9741" x="355.9282" y="428.9888">Confirma creaci&#243;n</text></g><g class="message" data-entity-1="part2" data-entity-2="part1" id="msg10"><polygon fill="#181818" points="45.8379,459.1875,35.8379,463.1875,45.8379,467.1875,41.8379,463.1875" style="stroke:#181818;stroke-width:1;"/><line style="stroke:#181818;stroke-width:1;stroke-dasharray:2,2;" x1="39.8379" x2="337.9282" y1="463.1875" y2="463.1875"/><text fill="#000000" font-family="sans-serif" font-size="13" lengthAdjust="spacing" textLength="222.8027" x="51.8379" y="458.1216">Accede a la Sala (Esperando rival)</text></g><rect fill="#EEEEEE" height="3" style="stroke:#EEEEEE;stroke-width:1;" width="947.3652" x="0" y="491.7539"/><line style="stroke:#000000;stroke-width:1;" x1="0" x2="947.3652" y1="491.7539" y2="491.7539"/><line style="stroke:#000000;stroke-width:1;" x1="0" x2="947.3652" y1="494.7539" y2="494.7539"/><rect fill="#EEEEEE" height="23.1328" style="stroke:#000000;stroke-width:2;" width="133.6025" x="406.8813" y="481.1875"/><text fill="#000000" font-family="sans-serif" font-size="13" font-weight="bold" lengthAdjust="spacing" textLength="115.0767" x="412.8813" y="497.2544">3. Jugar Partida</text><g class="message" data-entity-1="part1" data-entity-2="part2" id="msg11"><polygon fill="#181818" points="326.9282,531.4531,336.9282,535.4531,326.9282,539.4531,330.9282,535.4531" style="stroke:#181818;stroke-width:1;"/><line style="stroke:#181818;stroke-width:1;" x1="34.8379" x2="332.9282" y1="535.4531" y2="535.4531"/><text fill="#000000" font-family="sans-serif" font-size="13" lengthAdjust="spacing" textLength="213.2876" x="41.8379" y="530.3872">Ambos jugadores marcan "Listo"</text></g><g class="message" data-entity-1="part2" data-entity-2="part3" id="msg12"><polygon fill="#181818" points="606.5293,560.5859,616.5293,564.5859,606.5293,568.5859,610.5293,564.5859" style="stroke:#181818;stroke-width:1;"/><line style="stroke:#181818;stroke-width:1;" x1="338.9282" x2="612.5293" y1="564.5859" y2="564.5859"/><text fill="#000000" font-family="sans-serif" font-size="13" lengthAdjust="spacing" textLength="131.9106" x="345.9282" y="559.52">Socket (start_game)</text></g><g class="message" data-entity-1="part3" data-entity-2="part4" id="msg13"><polygon fill="#181818" points="870.7056,589.7188,880.7056,593.7188,870.7056,597.7188,874.7056,593.7188" style="stroke:#181818;stroke-width:1;"/><line style="stroke:#181818;stroke-width:1;" x1="618.5293" x2="876.7056" y1="593.7188" y2="593.7188"/><text fill="#000000" font-family="sans-serif" font-size="13" lengthAdjust="spacing" textLength="220.6382" x="625.5293" y="588.6528">Inicializa Partida y Reparte Cartas</text></g><g class="message" data-entity-1="part3" data-entity-2="part2" id="msg14"><polygon fill="#181818" points="349.9282,618.8516,339.9282,622.8516,349.9282,626.8516,345.9282,622.8516" style="stroke:#181818;stroke-width:1;"/><line style="stroke:#181818;stroke-width:1;stroke-dasharray:2,2;" x1="343.9282" x2="617.5293" y1="622.8516" y2="622.8516"/><text fill="#000000" font-family="sans-serif" font-size="13" lengthAdjust="spacing" textLength="160.5386" x="355.9282" y="617.7856">Estado inicial del tablero</text></g><g class="message" data-entity-1="part1" data-entity-2="part2" id="msg15"><polygon fill="#181818" points="326.9282,647.9844,336.9282,651.9844,326.9282,655.9844,330.9282,651.9844" style="stroke:#181818;stroke-width:1;"/><line style="stroke:#181818;stroke-width:1;" x1="34.8379" x2="332.9282" y1="651.9844" y2="651.9844"/><text fill="#000000" font-family="sans-serif" font-size="13" lengthAdjust="spacing" textLength="102.521" x="41.8379" y="646.9185">Juega una carta</text></g><g class="message" data-entity-1="part2" data-entity-2="part3" id="msg16"><polygon fill="#181818" points="606.5293,677.1172,616.5293,681.1172,606.5293,685.1172,610.5293,681.1172" style="stroke:#181818;stroke-width:1;"/><line style="stroke:#181818;stroke-width:1;" x1="338.9282" x2="612.5293" y1="681.1172" y2="681.1172"/><text fill="#000000" font-family="sans-serif" font-size="13" lengthAdjust="spacing" textLength="132.2915" x="345.9282" y="676.0513">Socket (play_action)</text></g><g class="message" data-entity-1="part3" data-entity-2="part4" id="msg17"><polygon fill="#181818" points="870.7056,706.25,880.7056,710.25,870.7056,714.25,874.7056,710.25" style="stroke:#181818;stroke-width:1;"/><line style="stroke:#181818;stroke-width:1;" x1="618.5293" x2="876.7056" y1="710.25" y2="710.25"/><text fill="#000000" font-family="sans-serif" font-size="13" lengthAdjust="spacing" textLength="240.1763" x="625.5293" y="705.1841">Actualiza estado en memoria (Redis)</text></g><g class="message" data-entity-1="part3" data-entity-2="part2" id="msg18"><polygon fill="#181818" points="349.9282,735.3828,339.9282,739.3828,349.9282,743.3828,345.9282,739.3828" style="stroke:#181818;stroke-width:1;"/><line style="stroke:#181818;stroke-width:1;stroke-dasharray:2,2;" x1="343.9282" x2="617.5293" y1="739.3828" y2="739.3828"/><text fill="#000000" font-family="sans-serif" font-size="13" lengthAdjust="spacing" textLength="204.3628" x="355.9282" y="734.3169">Emite nuevo estado del tablero</text></g><rect fill="#EEEEEE" height="3" style="stroke:#EEEEEE;stroke-width:1;" width="947.3652" x="0" y="767.9492"/><line style="stroke:#000000;stroke-width:1;" x1="0" x2="947.3652" y1="767.9492" y2="767.9492"/><line style="stroke:#000000;stroke-width:1;" x1="0" x2="947.3652" y1="770.9492" y2="770.9492"/><rect fill="#EEEEEE" height="23.1328" style="stroke:#000000;stroke-width:2;" width="94.8184" x="426.2734" y="757.3828"/><text fill="#000000" font-family="sans-serif" font-size="13" font-weight="bold" lengthAdjust="spacing" textLength="76.2925" x="432.2734" y="773.4497">4. Chatear</text><g class="message" data-entity-1="part1" data-entity-2="part2" id="msg19"><polygon fill="#181818" points="326.9282,807.6484,336.9282,811.6484,326.9282,815.6484,330.9282,811.6484" style="stroke:#181818;stroke-width:1;"/><line style="stroke:#181818;stroke-width:1;" x1="34.8379" x2="332.9282" y1="811.6484" y2="811.6484"/><text fill="#000000" font-family="sans-serif" font-size="13" lengthAdjust="spacing" textLength="262.1328" x="41.8379" y="806.5825">Escribe mensaje en el chat de la partida</text></g><g class="message" data-entity-1="part2" data-entity-2="part3" id="msg20"><polygon fill="#181818" points="606.5293,836.7813,616.5293,840.7813,606.5293,844.7813,610.5293,840.7813" style="stroke:#181818;stroke-width:1;"/><line style="stroke:#181818;stroke-width:1;" x1="338.9282" x2="612.5293" y1="840.7813" y2="840.7813"/><text fill="#000000" font-family="sans-serif" font-size="13" lengthAdjust="spacing" textLength="154.4385" x="345.9282" y="835.7153">Socket (send_message)</text></g><g class="message" data-entity-1="part3" data-entity-2="part2" id="msg21"><polygon fill="#181818" points="349.9282,865.9141,339.9282,869.9141,349.9282,873.9141,345.9282,869.9141" style="stroke:#181818;stroke-width:1;"/><line style="stroke:#181818;stroke-width:1;stroke-dasharray:2,2;" x1="343.9282" x2="617.5293" y1="869.9141" y2="869.9141"/><text fill="#000000" font-family="sans-serif" font-size="13" lengthAdjust="spacing" textLength="249.3423" x="355.9282" y="864.8481">Socket (receive_message - Broadcast)</text></g><g class="message" data-entity-1="part2" data-entity-2="part1" id="msg22"><polygon fill="#181818" points="45.8379,895.0469,35.8379,899.0469,45.8379,903.0469,41.8379,899.0469" style="stroke:#181818;stroke-width:1;"/><line style="stroke:#181818;stroke-width:1;stroke-dasharray:2,2;" x1="39.8379" x2="337.9282" y1="899.0469" y2="899.0469"/><text fill="#000000" font-family="sans-serif" font-size="13" lengthAdjust="spacing" textLength="189.23" x="51.8379" y="893.981">Muestra mensaje en pantalla</text></g><?plantuml-src RPJDRXen4CVl-nGZJekK1FNZX4Gb23JQA4bHWEPIAPgrfyIfrrwDlRJfQ_KH-c8TOz9c6ouSlFFn_yty1rJHCrnsMzIUYnOv6cLQT1467zcxI4v_SUKjeOgZpoRIS00OO5FrGsUelkN8nO-MAOJHoijB33bykgmAZH5h39I20mNG17ECFaZEDRB1-MnqIzeSCkQpefXCuCqPtDBMXCWU9fFY81DEFuY2CLHEtdMd27Ig1EKcT5BAdy2YGMDFO8aXVFUiXyMcIacYOmpBJwirZB0reouGXn7l6n0NyZK5pMTZk90w6i5rjFFGvQhv-w7rd7OTsHt1sWiub9Ttwzn4lXzKZY7niDaIe1NMy51xgGfBDYxDpUu9tvx1EHCohD3Y4SOLMLBAU8Sm-1SuE0vaVLqRcMrvuvkQwIJrsg4o6cK4B_2MmfsOWInSISuJb8iGfUqOxgRLkhgv6FPepxtxQhX1KA90cT-_t2lMgL8aAqKGYZsAL6o9qMaFIOGTxd7VdUrJM5OZzj77YATDBRjyp8y2qo0hT32u4iM-1vuz1gL8vtY_nOPwb9KJVw8rF_5ljoVPIJ8kmRdyOkXHvX60oMbYK0jYMKli_vTusT4MePETg5JccARMujEz78rihYTggcANDL5k9-vfgF5o0L3c0-YBQkJe3aOyPBmKbcRwNYpqW35vu_Kq5q6ngKbwk82FbDf9kfBuT86ofpQFvkXSvQJl6xbct59VrNC4aoApe-SWE8KPUzGAGtnz3jUT032-b9B-FT1QBFu0?></g></svg>